<svg xmlns="http://www.w3.org/2000/svg" width="34" height="32.5" viewBox="0 0 34 32.5">
  <g id="cart" transform="translate(-1 -1)">
    <path id="Path_71" data-name="Path 71" d="M15,31.5A1.5,1.5,0,1,1,13.5,30,1.5,1.5,0,0,1,15,31.5Z" transform="translate(1)" fill="none" stroke="#7b6363" stroke-linecap="round" stroke-linejoin="round" stroke-width="1"/>
    <path id="Path_72" data-name="Path 72" d="M31.5,31.5A1.5,1.5,0,1,1,30,30,1.5,1.5,0,0,1,31.5,31.5Z" transform="translate(-2)" fill="none" stroke="#7b6363" stroke-linecap="round" stroke-linejoin="round" stroke-width="1"/>
    <path id="Path_73" data-name="Path 73" d="M1.5,1.5h6l4.02,20.085a3,3,0,0,0,3,2.415H29.1a3,3,0,0,0,3-2.415L34.5,9H9" fill="none" stroke="#7b6363" stroke-linecap="round" stroke-linejoin="round" stroke-width="1"/>
  </g>
</svg>
