<svg id="圖層_1" data-name="圖層 1" xmlns="http://www.w3.org/2000/svg" viewBox="0 0 383.55 114.53"><defs><style>.cls-1{fill:#fef8ef;}</style></defs><title>Logo_white_s</title><path class="cls-1" d="M32.39,113.35l-.62,1.19q-.35.94-1.77.94-.18,0-2.92,1a13.59,13.59,0,0,1-4.51,1l-2.38.17A8.27,8.27,0,0,1,16,116.54a12.78,12.78,0,0,1-2.91-2.09q-.89-.94-2.44-5.62a30.12,30.12,0,0,1-1.55-5.62q0-3.32,1.86-3.66a5,5,0,0,0-.84-1.92A8.14,8.14,0,0,1,9.33,96q0-5.28,2.39-8.18a31.81,31.81,0,0,1-1.06-3.66,8.85,8.85,0,0,1,.44-1.41,13.82,13.82,0,0,0,.62-2.26,5.86,5.86,0,0,1,.53-1.7l.18-1.45a1.17,1.17,0,0,1,1.33-1c.35,0,.53-.23.53-.68V75l-.18-1.11a4.34,4.34,0,0,1,1.23-3.45A5.32,5.32,0,0,0,17,67.29a4.8,4.8,0,0,1,1-2.6,3.49,3.49,0,0,0,1-1.79l1.23-2.39,1-3.15a1.42,1.42,0,0,1,1.06-1.19q.88-.26.88-.77l-.17-1q.7-1.79,1-2.56a2.47,2.47,0,0,1,1.59-1.28,19.89,19.89,0,0,1,2.17-4.09,9.4,9.4,0,0,0,1.46-2.73,6.47,6.47,0,0,1,2.66-3q.18-.34.75-1.75T34,37.42q.88-.17.89-.68l-.35-.68a5.69,5.69,0,0,1,1.33-2.47l1.06-1.87a5.39,5.39,0,0,1,1.77-1.28,28,28,0,0,1,3.19-4.77,29.78,29.78,0,0,0,3.37-5.11A16.12,16.12,0,0,1,49,17.23L52,13.73Q53,11.6,54.09,11.6a8.21,8.21,0,0,1,4.16-4,17.56,17.56,0,0,0,2.52-1.83A6.25,6.25,0,0,1,64.45,4.1q1.42,0,3.63,3t2.21,5a3.38,3.38,0,0,1-.58,1.49,4.76,4.76,0,0,0-.67,2q-.09,1.07-1.06,6t-1.68,5.62l-2.39,4.43q-.35,1-.8,1.19t-1.06,1.36l.44,1.79h-.18a12,12,0,0,0-2,3.83q-1.42,2-2.44,3.88a6.94,6.94,0,0,0-1,2.43l-.53,1.19a21.78,21.78,0,0,0-2.57,4.52,4.4,4.4,0,0,0-1.37,1.88,3.78,3.78,0,0,1-1.28,1.75,2.74,2.74,0,0,0-1,1.92,3.64,3.64,0,0,1-.49,1.62L47.8,58.9v.17L48,61.54c0,.23-.28.48-.84.77a3.53,3.53,0,0,0-1.46,1.83,2.55,2.55,0,0,1-2.21,1.58,2.23,2.23,0,0,0-1,1l.35,1.62q-.18.17-1.37,1.79A7.33,7.33,0,0,1,40,71.85L38.14,72q-.53.17-.53,3a2.53,2.53,0,0,1-1.77,2.56q-4.61,6.82-5.36,7.58a5.69,5.69,0,0,1-2.88,1.19c0,.11-.12.17-.35.17q-.89,0-3.81-2.47h-.18q-1.15,4.94-1.8,5.62a2.15,2.15,0,0,0-.66,1.53l.88,1.53V93a24.92,24.92,0,0,1-.88,5.88v.51l.35,1.79v3.15L21,106.19a4.33,4.33,0,0,1,.7,2.13q0,2.73,1.41,2.73.71,0,2.21-1.7l1.06-.51a7.28,7.28,0,0,0,3.06-3.07,8.23,8.23,0,0,0,1.46-4.09q0-1.79-3.63-1.79-1.77-.34-1.77-3.66a3.71,3.71,0,0,1,1.33-2.77,17.27,17.27,0,0,0,2.3-2.6q2.13-3.15,4.52-3.15l4.52-1.53a3.81,3.81,0,0,1,1.37.26q.66.26,1.73.6,2.83-1,2.92-1a4.09,4.09,0,0,1,4.16,3.07q0,.6,1.42.6a7.56,7.56,0,0,0,5.18-1.83,20,20,0,0,1,4.43-3,18.57,18.57,0,0,0,3.81-2.39A5.33,5.33,0,0,1,65,81.22h1.33q.18,0,1.06-1.11T70.65,79c.59,0,.89.23.89.68q0,4.52-1.37,5.33a12.49,12.49,0,0,0-3.32,3.71l-1,.51a11,11,0,0,0-1.59,1.7A2.71,2.71,0,0,1,62.85,92q-2,3-3.1,3a2.27,2.27,0,0,1-1.2-.43,2.51,2.51,0,0,0-.84-.43c-.35,0-.65.68-.88,2a14.14,14.14,0,0,1-2.92,2.47q-.36,0-1.24-1c0-.11-.06-.17-.18-.17A1.65,1.65,0,0,0,50.76,99a2,2,0,0,1-2,1.71l-3.54.6-2-.17q-.71,0-3.06,4.18t-2.88,4.35a5.85,5.85,0,0,0-3.81,3.15Zm30.2-97.74v-1q-2,.51-2.92,3.66l-.71.68a7.23,7.23,0,0,0-2.66,2.86,27.77,27.77,0,0,1-3.19,4.47l-.35,1-2,2.47-.35,1.62A4.66,4.66,0,0,1,49,32.48a3.73,3.73,0,0,0-1.55,2.09,9.57,9.57,0,0,1-1.95,3.15Q44,39.55,43.41,40.19a21.59,21.59,0,0,0-2.08,4.56l-.53.85a1.48,1.48,0,0,1-.89,1.28l-3.28,3.83q0,.34-.35,2.47a1.9,1.9,0,0,0-1.68,1l-1.42,3.15a3.36,3.36,0,0,1-.89,1.19,12.16,12.16,0,0,1-3.28,6l-2,4a6,6,0,0,0-.53,1.87l-.18.51a7.12,7.12,0,0,0-1.06,3q0,.34-.18,2.13h.18a1.7,1.7,0,0,0,.71-.43,15.46,15.46,0,0,1,1.42-1,3.84,3.84,0,0,0,1.42-2.09,3.7,3.7,0,0,1,1.73-2.17A3.58,3.58,0,0,0,32,69l5.31-6.82a15.71,15.71,0,0,1,1.46-1.58q.93-.9.93-1.41L40.44,58q.53-.51,1.82-1.87a15.88,15.88,0,0,1,2-1.87,2.08,2.08,0,0,0,.8-1.62,4.52,4.52,0,0,1,1-2.3l.35-.68A15.27,15.27,0,0,1,48,48.07,1.8,1.8,0,0,0,48.68,47q.09-.59,2-2.22a12.22,12.22,0,0,1,2.08-4.13,32.05,32.05,0,0,0,2.88-5.16,9.93,9.93,0,0,1,1.9-3.2,5.24,5.24,0,0,0,1.2-3.2l.89-1.36,2.75-7.33L62,18.59Z" transform="translate(-9.15 -4.1)"/><path class="cls-1" d="M73.24,75.68l1.33-.34.53-1.11a23.14,23.14,0,0,0,6.2-4.69,1.89,1.89,0,0,1,.8-.68,5,5,0,0,0,1.33-1.19,10.86,10.86,0,0,1,7.79-3.15q5.31,0,5.67,6.22L97.42,72a32.31,32.31,0,0,1,2,4.86,21.28,21.28,0,0,1,1.28,4.52A8.36,8.36,0,0,1,99.19,86q-1.24.6-5.93,6.39l-.89.6A17.16,17.16,0,0,1,90.51,96q-1.77.6-1.77,1.28v1.53a1.66,1.66,0,0,1-.4.68,12.74,12.74,0,0,0-1.11,2l-.71,1a3.68,3.68,0,0,0-.71,1.41,6.32,6.32,0,0,1-1,1.92,2.53,2.53,0,0,0-.66,1.36q0,1.28,3.45,1.28a6.81,6.81,0,0,0,1.33-.51l1.24.34a2.55,2.55,0,0,0,.89-.55,5.66,5.66,0,0,1,2.17-.9,8.49,8.49,0,0,0,2.57-1,12.63,12.63,0,0,1,2.66-1.19,9.38,9.38,0,0,0,3-1.66,10.05,10.05,0,0,1,2.79-1.66,8.09,8.09,0,0,0,2.57-1.58,19.64,19.64,0,0,1,2.7-2,35.46,35.46,0,0,0,4.78-4.09,10.11,10.11,0,0,1,2.92-1.79,10.18,10.18,0,0,0,1.55-2.26q1.37-2.26,3.14-2.26t1.86,1.7a2.49,2.49,0,0,1-.89,1.79v.51l.18,1.36a1.36,1.36,0,0,1,.18.77q0,.34-.66,1a3.75,3.75,0,0,0-.93,1.75,2,2,0,0,1-1.68,1.41q-.53,1.88-1.37,2.13a7.05,7.05,0,0,0-2.35,1.7,38.9,38.9,0,0,1-4.25,3.41,29.18,29.18,0,0,0-3.76,3q-1,1.07-1.37,1.07a1.85,1.85,0,0,1-.71-.34,1.88,1.88,0,0,0-.71-.34q-.53,0-.71,1.19l-.35.85A5.83,5.83,0,0,1,103,111l-.53-.17h-.35q-1.06,0-1.06.77l.53.85v.17q0,1.19-1.42,1.19-1,0-5.67,3.15l-2.57.51-2.12,1.11a4.4,4.4,0,0,0-1.33-.6l-1.42.43-2.57.17q-.09,0-3.23-1.7t-3.76-3.41a24,24,0,0,0-1.59-3.45,6.34,6.34,0,0,1-1-2.43,17,17,0,0,1,.71-5.84,17.14,17.14,0,0,0,.89-2.6,4.26,4.26,0,0,1,1-1.83,7.76,7.76,0,0,0,1.37-3.2,40,40,0,0,1,3.54-6.05A7.7,7.7,0,0,0,84,85.4l1.15-1.53a4.49,4.49,0,0,0,.53-1.32c.23-.77.53-1.21.88-1.32a4.53,4.53,0,0,0,.71-1.53q0-2.47-2.3-2.47-.44,0-1,.89a5.3,5.3,0,0,1-2.44,1.75,10.2,10.2,0,0,0-2.35,1.28,7.31,7.31,0,0,1-1.91,1.07,6.46,6.46,0,0,0-2.52,2l-1.51.68q-.71,1.62-1.24,1.79t-3.28.85a5.1,5.1,0,0,0-.89,1,2.4,2.4,0,0,1-2,.94,22.49,22.49,0,0,0-2.13,2.39,7.2,7.2,0,0,0-1.86.68L60,93A7.86,7.86,0,0,0,58.5,94.6q-.84,1.11-3.15,1.11-1.33,0-1.33-2A8.11,8.11,0,0,1,57.08,87q3.06-2.47,4.47-2.64a2,2,0,0,0,1.77-1A2.89,2.89,0,0,1,65,81.95a10,10,0,0,0,3.19-2.47,9.41,9.41,0,0,1,3.94-2.6Z" transform="translate(-9.15 -4.1)"/><path class="cls-1" d="M133.59,82.33l1.86-1.45a2.19,2.19,0,0,0,2.3-2.13q.18-2,2.92-3.41l1.06-1.45q1.33-1.28,7.26-3.32A7.06,7.06,0,0,0,151,69a.52.52,0,0,1,.35-.17l1.42.34a10,10,0,0,0,3-.6,11.21,11.21,0,0,1,3.5-.6l3.72-.17a4.75,4.75,0,0,1,1.46.51,6.41,6.41,0,0,0,2.7.51,4.91,4.91,0,0,1,3.58,1.7,4.81,4.81,0,0,1,1.64,3.15q0,2.64-2.83,5.37T165,82.16a10.57,10.57,0,0,1-2.3,1.83,6.43,6.43,0,0,0-1.64,1.19,2.32,2.32,0,0,1-1.37.81.65.65,0,0,1-.53-.21.65.65,0,0,0-.53-.21q-1.42,0-3.09,3.32L154,88.72a4.57,4.57,0,0,0-1.95,2,1.79,1.79,0,0,1-1.86,1.11Q146.9,95,145.75,95a7.53,7.53,0,0,1-1.24-.34,2.77,2.77,0,0,0-.71,1.79q0,1-1.41,1.19l-1.15,1-.88-.17-1.77,1.79a5.31,5.31,0,0,0-2.74.85q-.18,1-.53,2.6t-.35,1.75q0,2.47,4.69,2.47l4.25-.6a6.14,6.14,0,0,0,3.14-.85,6.15,6.15,0,0,1,3.15-.85,5.81,5.81,0,0,0,1.59-.34l.89.34a7.36,7.36,0,0,1,5-3.32l.89-.51a2.21,2.21,0,0,1,1.06-1.36l.71-.6a2,2,0,0,1,1.33-.68h1.24l.35-.17a4.25,4.25,0,0,1,3-2.6,3.41,3.41,0,0,0,2.39-1.24,2.19,2.19,0,0,1,1.73-1A3.25,3.25,0,0,0,172.39,93a10.74,10.74,0,0,1,2.08-1.83,20.75,20.75,0,0,0,1.73-1.28,1.39,1.39,0,0,1,.84-.43q.53,0,.53.77c0,.51.12.77.35.77s.35-.11.35-.34a2.72,2.72,0,0,0-.18-.85v-.6a1.7,1.7,0,0,1,1.42-1.71l4-2.47q.18-1.79,1-2.09a4,4,0,0,0,1.28-.68,1.45,1.45,0,0,1,1-.38q1.15,0,1.15,1.28l-.44,2.22.44,2.3a2.49,2.49,0,0,1-.84,1.41,6,6,0,0,0-1.29,2.73q-.44,1.83-1.15,2h-.53a7.49,7.49,0,0,1-2.53,1.92,2.75,2.75,0,0,0-1.46,1.07l-3,3.32q-.89.85-1.51,1.53t-1,.68l-.71-.68c0-.11-.12-.17-.35-.17q-.89,0-1.11,1a3.77,3.77,0,0,1-.93,1.79,9.52,9.52,0,0,0-3.46,2.21l-.53.17H166q-1.15,0-1.6,1.66a2.64,2.64,0,0,1-2.53,1.92,5.62,5.62,0,0,0-3,1,2.06,2.06,0,0,1-.8.34,12.44,12.44,0,0,0-2.48,1.36l-7.45,2.56A3.74,3.74,0,0,1,147,116l-2.48.34a1.43,1.43,0,0,1-1.06-.68c-.35-.45-.59-.68-.71-.68l-1.6.51a12.17,12.17,0,0,1-3.37.51,4,4,0,0,1-2-.6,16.94,16.94,0,0,0-1.68-.85q-2.57,0-3.63-3.83l-1.06.17q-.35,0-2.39-6.05a3,3,0,0,0-1.68-1,1.51,1.51,0,0,1-1.15-1.66q0-3.83,1.73-5.16t1.9-2l1.24-4.43a4.36,4.36,0,0,0,.89-1.7l2-3.58Q132.35,84.72,133.59,82.33Zm18.73-5.11-1.06.51a21.31,21.31,0,0,0-2.08,1.49,20.58,20.58,0,0,1-3.37,2.13q-1.64.81-3.37,4.22a18.93,18.93,0,0,0-1.73,3.92q0,.51.53.51l3-1.28a14.38,14.38,0,0,0,3.14-2,42,42,0,0,1,4.21-2.9l.71-.68A5.72,5.72,0,0,1,154,81.95a8.79,8.79,0,0,0,2.17-1.75l.89-.34A6.45,6.45,0,0,1,160.07,77q1.55-.51,1.55-1,0-1-1.68-1a4.82,4.82,0,0,0-2.12.85h-2a6.46,6.46,0,0,0-1.95,1Z" transform="translate(-9.15 -4.1)"/><path class="cls-1" d="M247.49,95l1.41-1.19a1.43,1.43,0,0,0,1.59-1.15,2.83,2.83,0,0,1,1.9-1.83,7.22,7.22,0,0,0,3-2.77Q256.85,86,258.35,86c.35,0,.76.29,1.24.85a2.47,2.47,0,0,1,.71,1.36A11.34,11.34,0,0,1,258.53,94l-.35,2.39-.62,1.11a3.84,3.84,0,0,0-1.73,1.45,6.27,6.27,0,0,1-2.08,1.88l-.89,1.19a4,4,0,0,0-2.61,2,2.45,2.45,0,0,1-1.86,1.53,4.79,4.79,0,0,0-2.61,1.7,12.58,12.58,0,0,1-2.13.77l-.18.85a6.39,6.39,0,0,1-2.79,1.36,16,16,0,0,0-2.83,1,3.63,3.63,0,0,1-1.28.47,7.44,7.44,0,0,1-3.1-.64,9.78,9.78,0,0,0-2.92-.81,1.92,1.92,0,0,1-.62-1.11,3.74,3.74,0,0,0-.89-1.58,4.13,4.13,0,0,1-.8-2.68l.35-1.62a1.47,1.47,0,0,0-.44-.85,1.45,1.45,0,0,1-.44-.85.68.68,0,0,1,.18-.51.67.67,0,0,0,.18-.51,2.88,2.88,0,0,0-.18-.94,2.7,2.7,0,0,1-.18-.85l.53-4.17c0-.34-.12-.51-.35-.51s-.66.29-1.28.85a3.11,3.11,0,0,1-2.17.85,3.84,3.84,0,0,0-1.15,2.13,7.65,7.65,0,0,1-1.77,1.53l-.35.51q-.18.6-1.33,1a3.18,3.18,0,0,0-1.59,1l-.89.85-1.68-.17a12.37,12.37,0,0,0-1,1.49,7,7,0,0,1-2,2.17l-6.73,5.28q-1.06.68-3.1,1.71l-.53.51q-7.09,4.52-10,4.52a15.33,15.33,0,0,1-5.58-1.28q-3.19-1.28-3.45-3.07l-.89-3.49a5.93,5.93,0,0,1-.8-3.32,3.4,3.4,0,0,1,.18-1.36v-.51l-.18-2.81q0-1,1.68-1l-.18-2.3a11.89,11.89,0,0,1,1.55-2.68,12.25,12.25,0,0,1,2.08-2.68l.89-1.11a2.76,2.76,0,0,1,1.24-2.17A11.92,11.92,0,0,0,191,88a10.68,10.68,0,0,1,3-2.64l2.66-2.56a26.74,26.74,0,0,1,6.74-4.77,8.9,8.9,0,0,0,2.17-1.71,10.41,10.41,0,0,1,3.73-2.26,25.76,25.76,0,0,0,4.08-1.83,7.17,7.17,0,0,1,3.15-1.11h.71A37,37,0,0,0,221.9,69h.53a5.64,5.64,0,0,1,1.68.68h.18l1.42-.68a2,2,0,0,1,.89-.17q5.5,0,6,7.33.18,1.53.89,1.53.88,0,2.53-3.11t7-3.11q3.81,0,3.81,4.69,0,5.54-5.14,10.48a5.87,5.87,0,0,0-.53,1.53L239.9,91.7v.17a2.58,2.58,0,0,1-.75,1.41,2.62,2.62,0,0,0-.75,1.58l.18,2.13-.35,2.39a2.74,2.74,0,0,0,.62,2.13,7.3,7.3,0,0,0,4.11-2.26,6,6,0,0,1,1.81-1.75l.88-.34A8.39,8.39,0,0,1,247.49,95Zm-29.41,0a4,4,0,0,1,2.17-2.85,4.27,4.27,0,0,0,2.17-2,45.77,45.77,0,0,0,4.83-4.26q3.15-3.07,3.15-3.75c0-.17-.12-.26-.35-.26h-.18l-.71.43-1.59-.17-1.68.17-1.24-.6-1.15.17-1.77-.34a5,5,0,0,0-2.44.55,18.06,18.06,0,0,1-3.9,1.24,14.47,14.47,0,0,0-5.18,2.34q-2.3,1.66-3.37,1.66-.62,1.28-4.16,3.66a4,4,0,0,0-2.75,3,10,10,0,0,0-2.3,2L197,97.5a5.75,5.75,0,0,1-1.77,1,2,2,0,0,0-1.24,1.79,4.69,4.69,0,0,1-1.2,2.56,3.25,3.25,0,0,0-1,1.83q0,4.18,1.68,4.17a10.86,10.86,0,0,0,3-.89A11.86,11.86,0,0,0,199,106.7a3.91,3.91,0,0,1,1.42-.68l1.68-.85a1.56,1.56,0,0,1,.8-.43,1.7,1.7,0,0,0,.89-.55,5.68,5.68,0,0,1,1.59-1,4.3,4.3,0,0,0,1.77-1.49q1.51-.85,4.87-2.64l1.86-1.36a6.58,6.58,0,0,0,2.39-1.45A4.56,4.56,0,0,1,218.08,95Z" transform="translate(-9.15 -4.1)"/><path class="cls-1" d="M283.63,40.06l1.24-.34.89-.85h.18l.8.34h.18a8.45,8.45,0,0,0,3.78-.81,19.54,19.54,0,0,1,2.77-1.15,7.35,7.35,0,0,0,1.39-.51.9.9,0,0,1,.45-.17l1.43.17q.71,0,1.9-2.43a9.48,9.48,0,0,1,2.7-3.54,11.43,11.43,0,0,0,3-4.18,7.11,7.11,0,0,0,.8-1.32q.44-.89.71-.89A2.4,2.4,0,0,0,308,22.76q2.65-3,4.33-3,2.21,0,3.1,4.09l.89,3.24a12.07,12.07,0,0,1-.44,1.24,5.71,5.71,0,0,0-.4,2.3,5.07,5.07,0,0,1-.09,1.53,2.73,2.73,0,0,0-.13.9q0,.68,1.51.68a5.71,5.71,0,0,0,1.95-.68l.53-.17a3.17,3.17,0,0,0,1.51.51,25.5,25.5,0,0,0,2.52-.85,21,21,0,0,1,3-.94,10.88,10.88,0,0,0,2.13-.68h1.06l.71.26a3.89,3.89,0,0,0,1.46-.72,9.39,9.39,0,0,1,4.21-.89l1.24-.51h.35q2.92,0,2.92,2.47a4.24,4.24,0,0,1-.84,1.79,12.09,12.09,0,0,0-1.37,2.9L334,41.17q-2,2.56-4.07,2.56-.35,0-2.21-2.3c0-.11-.12-.17-.35-.17a5.65,5.65,0,0,0-1.86.34,5.08,5.08,0,0,1-1.59.34q-.27,0-4.69,1.28l-2.12.34a9.66,9.66,0,0,0-1.68.34l-4.52.85a7.79,7.79,0,0,0-3.63,4.18q0,.17-.89.77l-4,7a3.47,3.47,0,0,0-2.57,2.22l-.36.51a3.09,3.09,0,0,0-1.77,1.07,9.68,9.68,0,0,1-1.51,1.41l-1.6,2.3q-1,1.2-2,2.6a10,10,0,0,0-1.42,3,5.56,5.56,0,0,1-.71,1.83,1.29,1.29,0,0,0-.27.94l-.27.68a3.12,3.12,0,0,0-1.07,2.3l.36,1.36Q288,81,288,81.22a6.24,6.24,0,0,0,.18.94v.51a11,11,0,0,1-1.42,4.69l.18,1.36-.53,3.83a13.57,13.57,0,0,0,.53,2.81c-.24.23-.36.4-.36.51q0,2.39,2.62,5.24t2.62,8.91a6.28,6.28,0,0,1-.27,1.49,11.51,11.51,0,0,0-.35,2.13,3.44,3.44,0,0,1-1.37,2.26,3.68,3.68,0,0,1-2.17,1.11q-4.7,0-7-6.56T278.32,102l.18-3.32L278,97l.53-7.5-.36-1.79,2-7.33V77.73a6.12,6.12,0,0,1,1.24-1.36c0-.11-.12-.17-.35-.17s-.83.34-1.42,1a12.27,12.27,0,0,1-2.22,2l-.71,1.19A2,2,0,0,0,276,80q-.44.17-2.93,4a3.93,3.93,0,0,0-2.93,2,3.27,3.27,0,0,1-2.93,1.79l-.36.17q-.36,2.47-2.48,2.47l-.35.17q-1.33,2.9-2.75,2.81Q260.4,96,256.94,97a3.46,3.46,0,0,1-1.55,1.53,6.26,6.26,0,0,0-1.46.94,1.23,1.23,0,0,1-.8.43q-1.15,0-1.15-2.39a2.64,2.64,0,0,1,.58-1.49,2.55,2.55,0,0,0,.58-1.15q0-.17-.89-1,0-2.64,1.42-3.32a4.66,4.66,0,0,0,2.13-2,2.69,2.69,0,0,1,1.77-1.45q1.33-.42,1.33-1.11t2.31-2.39a20.77,20.77,0,0,0,3.37-3.11q1.06-1.32,1.77-1.32l.35-.34q.18-2.13,1.69-2.13l.89-.51.18-.68.53-.34h.71l.44-.34a4.16,4.16,0,0,1,2.08-3.32q1.9-1.19,7-6.69t5.67-7a28.41,28.41,0,0,1,2.26-4.13,10.89,10.89,0,0,0,1.82-4.9,2.76,2.76,0,0,0-.53-.68l-3.81,1.79q0-.26-1.77-.77a7,7,0,0,0-1.95,1.53q-.62.77-1,.77l-1.24-.17-3.9.43a18.35,18.35,0,0,0-7.88,2l-3.63,1h-.8a4.82,4.82,0,0,0-2.13.85l-2-.17a10.72,10.72,0,0,1-4.16,1.45,8.84,8.84,0,0,1-1.06-.17l-9,2.39q-1.06.34-4.78,3.49l-.71.17q-.88,0-2.08-1.92a6.7,6.7,0,0,1-1.2-3.45q0-8.44,15.06-9.8l3.63-1.36h.18l1,.34h.35a4.13,4.13,0,0,0,1.68-.64,24.81,24.81,0,0,1,5.14-1.58l3.63-.94,1.15.17a3.89,3.89,0,0,0,2-.68,8.82,8.82,0,0,1,3.37-1,15.53,15.53,0,0,0,3.14-.64l1.42-.34a4.3,4.3,0,0,0,1.46-.6,6.06,6.06,0,0,1,2.88-.6A6.49,6.49,0,0,1,283.63,40.06Z" transform="translate(-9.15 -4.1)"/><path class="cls-1" d="M310.62,86l.71-.94q2.31-.51,2.94-1.7a35.23,35.23,0,0,1,4.45-4.43q4.18-3.83,4.63-4.09a33.6,33.6,0,0,0,3.44-7.41q1.06-.51,1.06-1.19l.71-1.36.79-.17.35-.34v-.77q0-1.53,3.44-7.16,3.45-6.9,3.72-7.63a16.21,16.21,0,0,1,1.06-2.13,55.84,55.84,0,0,0,2.44-5.41,34.89,34.89,0,0,1,5.09-8.35q.35-.17,1.06-1.92a12.17,12.17,0,0,1,2.21-3.45l1.06-1.79,1.86-3a24.89,24.89,0,0,1,2.44-3.37,9.35,9.35,0,0,0,1.68-2.6,4.64,4.64,0,0,1,1.37-2,6.59,6.59,0,0,0,1.64-2.17,2.77,2.77,0,0,1,2.61-1.58,5.32,5.32,0,0,1,5,2.73,10,10,0,0,1,1.55,4.77q0,.26-1.06,3.67l-1.33,7.67q-1.77.85-1.77,2,0,4.52-3.63,9.37a4.67,4.67,0,0,0-.58,2.22A4.72,4.72,0,0,1,358,46.54a10.24,10.24,0,0,0-2.39,4l-8.24,11.33-.71.68A4.9,4.9,0,0,0,345.44,64L344,63.58q-2.39,0-2.39,1.45a3.78,3.78,0,0,0,.35,1.36v.17q0,.08-6.55,8.95a18.21,18.21,0,0,0-1.24,3.32L333,81.39a16.5,16.5,0,0,0-2.61,4.81,10.88,10.88,0,0,1-2,3.79q-1.77,3.83-1.77,4,0,.51.53.51T329.63,92a16.2,16.2,0,0,1,3.28-3.41,7,7,0,0,0,2.17-2.39l.89-.6a12.76,12.76,0,0,0,1.51-1l.89.17a2.15,2.15,0,0,0,.89-1.19,2.11,2.11,0,0,1,.53-1q2.31-.25,2.88-1.62T344,79.52q.71,0,1.86-1.58a8.27,8.27,0,0,1,3.24-2.56,18.45,18.45,0,0,0,3.11-1.75,17,17,0,0,1,4.13-1.83,16.47,16.47,0,0,1,4.17-1.07h.53l.71.17,1.33-.17a13,13,0,0,1,6.21,1.66A4.72,4.72,0,0,1,372,77.56l-.71,5.28-1,4.18a37.92,37.92,0,0,1-1.42,4.52,24.71,24.71,0,0,0-1.24,4l-.35,1.62.35,2.22-.18,1.79a.77.77,0,0,0,.88.85q.35,0,1.94-1.53,1,.17,1.85-1A15.25,15.25,0,0,1,374.52,97q0-.34,1.15-.64a9.5,9.5,0,0,0,3.18-2,16.21,16.21,0,0,1,3.44-3.28,30.7,30.7,0,0,1,5.92-3.88l.53-.68a4.21,4.21,0,0,1,2.74-1.45,1.11,1.11,0,0,1,1.24,1.28,4.19,4.19,0,0,1-.44,1.79,8,8,0,0,0-.62,2.43,13.11,13.11,0,0,1-1.77,4.3l-.35.85a2.68,2.68,0,0,1-1.5,1.71,4.36,4.36,0,0,0-1.9,1.41,9.84,9.84,0,0,1-4.2,2.17q-1.42,2.56-2.21,2.56l-1.59-.68a4,4,0,0,0-1.86,3,21,21,0,0,0-2.74,2.47l-1.77-.17q-.71,0-.71,1.88,0,.17-1.81,1.15a19.91,19.91,0,0,0-2.79,1.75q-1,.77-4.16.77a2,2,0,0,1-1.06-.6,6,6,0,0,0-2.08-1,2.89,2.89,0,0,1-1.9-2,10.09,10.09,0,0,0-1.15-2.47,2.8,2.8,0,0,1-.62-1.41l.18-1.7-.44-1.79.8-1.19a5.11,5.11,0,0,1-.53-1.62l.89-5.2A53.82,53.82,0,0,1,358,87.36q.18-.17.18-1L358,84.2l.18-1.19c0-.85-.3-1.31-.89-1.36s-.95-.2-1.06-.43a6.86,6.86,0,0,0-1.33-.51q-.71,0-1.24,1.06a7,7,0,0,1-1.42,1.92L350,83.35v.17q0,.68-2.39,2.64a7.41,7.41,0,0,0-3.81,2.22,5.36,5.36,0,0,0-2.44,1.32,11.08,11.08,0,0,1-2.26,1.49l-.71,1.36-1.42.43A3.64,3.64,0,0,1,334,95.2l-.89,1.62a2.88,2.88,0,0,0-2.57,1.83q-.71,1.66-1.06,1.66a1.46,1.46,0,0,1-.58-.21,1.62,1.62,0,0,0-.75-.21q-2,0-2.13,2.81,0,.34-3.64,4a47.1,47.1,0,0,1-3.9,3.75q-.27.09-1,1.75a5.4,5.4,0,0,1-2.08,2.47,23.59,23.59,0,0,0-2,1.32,2,2,0,0,1-1,.51q-1.86,0-3-2.56t-1.15-2.64l.53-1.79-.18-1.53q0-.08,1.11-3.45a18.87,18.87,0,0,1,2.53-5.28A15.64,15.64,0,0,0,314.42,93q-4,2.56-4.79,2.56-1.77,0-1.77-2.22A11,11,0,0,1,310.62,86Z" transform="translate(-9.15 -4.1)"/></svg>